<svg width="35" height="25" viewBox="0 0 35 25" fill="none" xmlns="http://www.w3.org/2000/svg">
<path d="M31.1167 1H3.53081C2.51849 1.11856 1.88578 1.82989 1.75924 1.94845C1.6327 2.06701 1 2.8969 1 3.96391C1 4.81752 1.59052 5.58419 1.88578 5.86082L16.0583 15.9381C16.2692 16.0567 16.8429 16.2938 17.4503 16.2938C18.0577 16.2938 18.4626 16.1357 18.5891 16.0567L33.3944 5.62371C34.4067 4.79382 33.9005 3.4897 33.6475 2.89691C33.2896 2.05859 32.5086 1.35565 32.2555 1.23711C32.0024 1.11857 31.4963 0.999995 31.1167 1Z" fill="#003968"/>
<path d="M18.8422 18.1907L33.9005 7.75773V20.2062C33.9005 20.799 33.6222 21.9608 33.0148 22.8144C32.3821 23.7629 31.0323 24 30.3574 24H4.54314C3.73328 24 3.02465 23.6048 2.77157 23.4072C2.68721 23.3282 2.26541 23.0516 1.75924 22.4588C1.22264 21.8303 1 20.957 1 20.5619V7.87629L15.5522 17.9536C15.9318 18.1512 16.8429 18.5464 17.4503 18.5464C18.0577 18.5464 18.6313 18.3093 18.8422 18.1907Z" fill="#003968"/>
<path d="M31.1167 1H3.53081C2.51849 1.11856 1.88578 1.82989 1.75924 1.94845C1.6327 2.06701 1 2.8969 1 3.96391C1 4.81752 1.59052 5.58419 1.88578 5.86082L16.0583 15.9381C16.2692 16.0567 16.8429 16.2938 17.4503 16.2938C18.0577 16.2938 18.4626 16.1357 18.5891 16.0567L33.3944 5.62371C34.4067 4.79382 33.9005 3.4897 33.6475 2.89691C33.2896 2.05859 32.5086 1.35565 32.2555 1.23711C32.0024 1.11857 31.4963 0.999995 31.1167 1Z" stroke="#003968" stroke-width="0.2"/>
<path d="M18.8422 18.1907L33.9005 7.75773V20.2062C33.9005 20.799 33.6222 21.9608 33.0148 22.8144C32.3821 23.7629 31.0323 24 30.3574 24H4.54314C3.73328 24 3.02465 23.6048 2.77157 23.4072C2.68721 23.3282 2.26541 23.0516 1.75924 22.4588C1.22264 21.8303 1 20.957 1 20.5619V7.87629L15.5522 17.9536C15.9318 18.1512 16.8429 18.5464 17.4503 18.5464C18.0577 18.5464 18.6313 18.3093 18.8422 18.1907Z" stroke="#003968" stroke-width="0.2"/>
</svg>
