<?xml version="1.0" encoding="utf-8"?>
<!-- Generator: Adobe Illustrator 24.0.2, SVG Export Plug-In . SVG Version: 6.00 Build 0)  -->
<svg version="1.1" id="Layer_1" xmlns="http://www.w3.org/2000/svg" xmlns:xlink="http://www.w3.org/1999/xlink" x="0px" y="0px"
	 viewBox="0 0 100 100" style="enable-background:new 0 0 100 100;" xml:space="preserve">
<style type="text/css">
	.st0{fill:#003968;}
	.st1{fill:none;stroke:#FFFFFF;stroke-width:4.0051;stroke-miterlimit:10;}
	.st2{fill:#FFFFFF;}
</style>
<g>
	<path class="st0" d="M74,90.1H26c-8.8,0-16-7.2-16-16V26c0-8.8,7.2-16,16-16H74c8.8,0,16,7.2,16,16V74C90.1,82.8,82.8,90.1,74,90.1
		z"/>
	<path class="st1" d="M62.4,78.5H37.6c-8.8,0-16-7.2-16-16V37.6c0-8.8,7.2-16,16-16h24.9c8.8,0,16,7.2,16,16v24.9
		C78.5,71.2,71.2,78.5,62.4,78.5z"/>
	<circle class="st1" cx="50" cy="50" r="13.4"/>
	<circle class="st2" cx="67.4" cy="33.3" r="4"/>
</g>
</svg>
