<svg id="Layer_1" data-name="Layer 1" xmlns="http://www.w3.org/2000/svg" viewBox="0 0 107.21 39.32"><defs><style>.cls-1{fill:#373f5f;}.cls-2{fill:#fff;}</style></defs><title>logo_istmo</title><path class="cls-1" d="M61.75,20c0,10.86-13.1,19.66-29.25,19.66S3.24,30.86,3.24,20,16.34.34,32.5.34,61.75,9.14,61.75,20Z" transform="translate(-3.24 -0.34)"/><path class="cls-2" d="M45.59,20.2c0,4.95-6,9-13.31,9S19,25.15,19,20.2s6-8.95,13.32-8.95,13.31,4,13.31,9Z" transform="translate(-3.24 -0.34)"/><path class="cls-2" d="M18.07,25H15.24V13.89h2.83V25Zm0-14.09H15.24V9.11h2.83V11Z" transform="translate(-3.24 -0.34)"/><path class="cls-1" d="M27.35,17.65a9.14,9.14,0,0,0-2.51.24A1.17,1.17,0,0,0,24,18.94a6.4,6.4,0,0,0,0,.77v1.08a1.15,1.15,0,0,0,0,.31,2.08,2.08,0,0,0,.19.58,1.36,1.36,0,0,0,.51.5,2.22,2.22,0,0,0,.79.24c.31,0,.64.07,1,.08h.74a9,9,0,0,0,2.72-.27,1.24,1.24,0,0,0,.81-1.13,3.07,3.07,0,0,0,.05-.53V20a5.24,5.24,0,0,1,.88-2.81Q32.51,16,37,16q4.74,0,5.71,1.1a4.14,4.14,0,0,1,1,2.84v.33a4.31,4.31,0,0,1-1,2.59q-.91,1.17-5,1.17h-.3a1.42,1.42,0,0,1-.3,0h-.61v-1.4a9.27,9.27,0,0,0,3.84-.49,1.81,1.81,0,0,0,.86-1.71V20a3.75,3.75,0,0,0,0-.44,3.16,3.16,0,0,0-.07-.5,1.83,1.83,0,0,0-.23-.68,1.48,1.48,0,0,0-.55-.56,2.58,2.58,0,0,0-.89-.29,8.61,8.61,0,0,0-1.16-.11l-.56,0H37.2q-2.55,0-3,.57a2.32,2.32,0,0,0-.42,1.42v.08a.69.69,0,0,0,0,.25V20a.64.64,0,0,1,0,.2,1.5,1.5,0,0,0,0,.2,4.54,4.54,0,0,1-1,2.48c-.54.69-2.17,1-4.9,1H27l-.9,0a12.76,12.76,0,0,1-1.79-.18,4,4,0,0,1-1.42-.46,2.73,2.73,0,0,1-.93-.8,2.92,2.92,0,0,1-.46-1,2.7,2.7,0,0,1-.12-.67c0-.22,0-.43,0-.61v-.54a3.48,3.48,0,0,1,0-.55,3.25,3.25,0,0,1,1.12-2c.65-.59,2-.89,4-.89H27l.19,0h.18v1.4Z" transform="translate(-3.24 -0.34)"/><path class="cls-2" d="M57.21,15.23H50v6.85a1.68,1.68,0,0,0,.47,1.35,3.86,3.86,0,0,0,2.16.4c1.25,0,2-.19,2.25-.55a2.51,2.51,0,0,0,.38-1.43v-.74h2.63A4.74,4.74,0,0,1,57.06,24c-.59.78-2.07,1.17-4.43,1.17a9.37,9.37,0,0,1-4.26-.67,2.56,2.56,0,0,1-1.16-2.44V15.23H44.78V13.89h2.43v-2.7H50v2.7h7.17v1.34Z" transform="translate(-3.24 -0.34)"/><path class="cls-1" d="M66.14,13.89v1.67a4.77,4.77,0,0,1,2.59-1.44,14.93,14.93,0,0,1,3.51-.4h1.24a13,13,0,0,1,2.85.5,2.94,2.94,0,0,1,1.85,1.32,5.6,5.6,0,0,1,2.71-1.46,16,16,0,0,1,3.63-.4,10.78,10.78,0,0,1,5.2.91,3.29,3.29,0,0,1,1.54,3.08V25H88.34v-7.5a2.07,2.07,0,0,0-.85-1.94,7,7,0,0,0-3.29-.51c-.27,0-.55,0-.86,0s-.62,0-.94.07a9.93,9.93,0,0,0-1.91.37,2.46,2.46,0,0,0-1.32.82,1.78,1.78,0,0,0-.31.67,4.55,4.55,0,0,0-.12.69V25H75.91V17.69A2.59,2.59,0,0,0,75,15.62a7.34,7.34,0,0,0-3.47-.51q-3.11,0-4.26.9a3.15,3.15,0,0,0-1.16,2.63V25H63.47V13.89Z" transform="translate(-3.24 -0.34)"/><path class="cls-1" d="M96.86,20.66v.51a3.19,3.19,0,0,0,0,.54A4.66,4.66,0,0,0,97.22,23,1.86,1.86,0,0,0,98,24a3.35,3.35,0,0,0,1.08.34,11.18,11.18,0,0,0,1.35.11h1.88A13.13,13.13,0,0,0,106,24a2.08,2.08,0,0,0,1.46-2c0-.22,0-.43.06-.64s0-.42,0-.65a4.26,4.26,0,0,0,0-.63v-.63a5.12,5.12,0,0,0-.64-2.94c-.43-.59-1.78-.88-4.07-.88h-.59c-2.42,0-3.93.22-4.53.67s-.89,1.45-.89,3v1.29ZM95.4,15.6c.94-.88,3.12-1.32,6.52-1.32q5.34,0,6.93,1.11c1.07.75,1.6,2.17,1.6,4.26a8.87,8.87,0,0,1-1,4.45q-1,1.7-6.71,1.7-5,0-6.88-.94c-1.26-.62-1.9-2-1.9-4.06V19.75A5.43,5.43,0,0,1,95.4,15.6Z" transform="translate(-3.24 -0.34)"/></svg>