<svg id="Layer_1" data-name="Layer 1" xmlns="http://www.w3.org/2000/svg" viewBox="0 0 16 10.75"><defs><style>.cls-1{fill:#373f5f;}.cls-2{fill:#fff;}</style></defs><title>logo_istmo_banner</title><path class="cls-1" d="M16,7.55c0,3-3.58,5.38-8,5.38S0,10.52,0,7.55,3.58,2.18,8,2.18,16,4.58,16,7.55Z" transform="translate(0 -2.18)"/><path class="cls-2" d="M11.58,7.61c0,1.35-1.64,2.46-3.64,2.46S4.31,9,4.31,7.61,6,5.16,8,5.16s3.64,1.09,3.64,2.46Z" transform="translate(0 -2.18)"/><path class="cls-2" d="M4.06,8.92H3.28v-3h.78Zm0-3.85H3.28V4.58h.78v.49Z" transform="translate(0 -2.18)"/><path class="cls-1" d="M6.59,6.91A2.22,2.22,0,0,0,5.91,7a.31.31,0,0,0-.23.28.74.74,0,0,0,0,.21v.3a.11.11,0,0,0,0,.08A.43.43,0,0,0,5.73,8a.32.32,0,0,0,.14.14.56.56,0,0,0,.21.06l.28,0h.2a2.31,2.31,0,0,0,.74-.08.36.36,0,0,0,.23-.31s0-.09,0-.14V7.55a1.43,1.43,0,0,1,.24-.77c.15-.21.63-.32,1.45-.32s1.39.1,1.56.3a1.12,1.12,0,0,1,.28.78v.09a1.17,1.17,0,0,1-.28.71c-.16.21-.62.32-1.36.32H9.1V8.27a2.51,2.51,0,0,0,1.05-.13.49.49,0,0,0,.23-.47V7.43a.59.59,0,0,0,0-.13.6.6,0,0,0-.06-.19A.43.43,0,0,0,10.15,7a.73.73,0,0,0-.25-.08,1.63,1.63,0,0,0-.31,0h-.3c-.47,0-.74.05-.82.15a.69.69,0,0,0-.12.39v.27a1.2,1.2,0,0,1-.27.68c-.15.19-.6.27-1.34.27H6.25a2.72,2.72,0,0,1-.49,0,1.1,1.1,0,0,1-.39-.12.75.75,0,0,1-.25-.22A.84.84,0,0,1,5,8a.58.58,0,0,1,0-.19V7.3a.88.88,0,0,1,.31-.55,1.7,1.7,0,0,1,1.09-.24H6.6v.4Z" transform="translate(0 -2.18)"/><path class="cls-2" d="M14.76,6.25h-2V8.12a.43.43,0,0,0,.13.37,1.08,1.08,0,0,0,.59.11c.34,0,.54,0,.61-.15a.77.77,0,0,0,.11-.39v-.2h.71a1.25,1.25,0,0,1-.22.79c-.16.21-.57.32-1.21.32a2.6,2.6,0,0,1-1.17-.19A.7.7,0,0,1,12,8.12V6.25h-.66V5.88H12V5.14h.77v.74h2v.37Z" transform="translate(0 -2.18)"/></svg>