<?xml version="1.0" encoding="utf-8"?>
<!-- Generator: Adobe Illustrator 24.0.2, SVG Export Plug-In . SVG Version: 6.00 Build 0)  -->
<svg version="1.1" id="Layer_1" xmlns="http://www.w3.org/2000/svg" xmlns:xlink="http://www.w3.org/1999/xlink" x="0px" y="0px"
	 viewBox="0 0 126.2 63.8" enable-background="new 0 0 126.2 63.8" xml:space="preserve">
<g>
	<path fill="#F7F5F4" d="M82.4,50.1c-16.9,0.5-59.2,0.4-76-1c-1.1-0.1-2.4-0.2-3.2-1c-0.8-0.7-1-1.9-1.2-3
		c-0.8-7.1-0.5-7.9-0.7-15.1C1.1,22.4,0.9,14.7,0.7,7c0-1.6,0-3.3,0.9-4.5c1.4-2,4.2-2.2,6.7-2.1c28.4,0.4,81.1,0.1,109.6,0.4
		c1.7,0,3.5,0.1,4.9,1.1c1,0.7,1.5,1.9,1.9,3c1,2.8,0.9,5.9,0.9,8.9c-0.2,8.3-0.6,16.6-1.2,24.9c-0.3,4.1,0,1.2-0.5,5.3
		c-0.4,3.7-2.9,4.6-6.5,4.9c-4.9,0.4-9.8,0.4-14.6,0c-0.3,3,0.4,6.7,2.2,9.2c1.7,2.5,4.4,4.3,7.3,5C99.2,65.1,88,58.7,82.4,50.1z"/>
	<g>
		<path d="M126.1,9.1c-0.2-2.6-0.7-4.5-1.6-6.1c-0.9-1.5-2.5-2.4-4.8-2.5c-1.6-0.1-3.3-0.1-4.9-0.1c-0.7,0-1.4,0-2.1,0L14,0.1
			c-0.7,0-1.4,0-2.1,0C10.3,0,8.6,0,7,0C4.7,0.1,3,0.6,1.9,1.6C0.5,2.6,0,4.2,0,6.6c0,3.6,0.2,7.3,0.3,10.8c0,1.3,0.1,2.6,0.1,3.9
			c0,1,0.1,2.1,0.1,3.1c0.1,3.8,0.2,7.6,0.1,11.5c0,1.1,0.3,2.1,0.3,3.2c0.2,3.8,0,0.2,0.2,3.8c0,0.2,0,0.4,0,0.6
			c0.1,1.8,0.2,3.8,1.4,4.9c0.6,0.5,1.4,0.8,2.6,1c0.8,0.1,1.6,0.2,2.4,0.2c0.3,0,0.6,0,0.9,0.1c4.7,0.4,9.4,0.7,14.1,0.9
			c10.1,0.5,43.8,0.1,53,0c1.9,0,3.9-0.1,6-0.1l0.3,0l0.2,0.2c4.7,7.1,12.8,11.9,21.6,12.9c2.8,0.3,5.6,0.3,8.4-0.1
			c0.3,0,0.7-0.2,0.9-0.4c0,0,0-0.1,0-0.1c0,0-0.1-0.1-0.1-0.1c-3-0.8-5.6-2.6-7.3-5.1c-1.4-2.1-2.1-4.8-2.1-7.8l0-0.5l0.5,0
			c4.4,0.2,8.9,0.2,13.2-0.1c1.6-0.1,3.2-0.3,4.6-1c1.3-0.7,2.2-1.7,2.6-3.1c0.2-0.7,0.3-1.5,0.4-2.3c0-0.2,0-0.4,0.1-0.6
			c0.1-1.2-0.5,4.6-0.3,3.4c0.2-2.3,0.4-4.8,0.6-7.3c0.4-4.9,0.7-9.8,0.9-14.7c0.1-2.5,0.2-5,0.3-7.5l0-0.9
			C126.2,13.3,126.3,11.2,126.1,9.1L126.1,9.1z M124.7,15.1c0,0.3,0,0.7,0,1v0c-0.2,9.4-0.8,19-1.7,28.4c0,0.5-0.1,1.1-0.1,1.6
			c-0.2,1.8,0.4-3.5,0.1-1.7c-0.1,0.9-0.4,1.5-0.7,2.1c-0.1,0.2-0.3,0.4-0.6,0.7c0,0-0.1,0-0.1,0.1c-0.1,0-0.1,0.1-0.1,0.1
			c-0.1,0.1-0.3,0.2-0.4,0.3l-0.1,0c0,0-0.1,0-0.1,0.1c-0.1,0-0.1,0.1-0.1,0.1c0,0-0.1,0-0.2,0.1c0,0-0.1,0-0.1,0l-0.1,0
			c-0.3,0.1-0.6,0.2-1,0.3c-0.3,0.1-0.5,0.1-1,0.1c-0.5,0.1-0.9,0.1-1.4,0.1c-2.4,0.2-4.8,0.2-7.1,0.2c0,0,0,0,0,0
			c-2.2,0-4.4-0.1-6.8-0.2c-0.4,0-1.1,0.2-1.1,0.5c-0.3,3.4,0.5,6.7,2.1,9.1c1.1,1.6,2.7,3,4.5,4l1.7,0.9l-1.9,0c-0.2,0-0.4,0-0.6,0
			c-3.2,0-6.3-0.5-9.2-1.5c-4.1-1.4-7.9-3.6-11-6.5c-1.7-1.6-3.1-3.3-4.4-5.2l-0.1-0.1c-0.1-0.1-0.3-0.1-0.6-0.1l-0.1,0
			c-8.7,0.2-41.9,0.8-51.6,0.5c-4.5-0.2-9.2-0.4-13.8-0.7c-2.3-0.1-4.6-0.3-6.8-0.5C9.1,49,8,48.9,6.9,48.8l-0.2,0
			c-0.8-0.1-1.8-0.1-2.6-0.7c-0.9-0.6-1.2-1.7-1.3-2.7c-0.2-1.1-0.2-2.1-0.3-3.2c-0.1-2.4-0.1,1.7,0-0.3c0-1.1-0.4-1.5-0.3-2.6
			C2.3,36,2.1,32.4,2,29c-0.1-4.8-0.3-9.6-0.4-14.4c-0.1-2.4-0.1-4.8-0.2-7.2l0-0.4c0-1.7-0.1-3.9,1.3-5.1c0.4-0.3,0.6-0.4,0.9-0.6
			C4.1,1,4.4,0.9,4.9,0.9c0.8-0.2,2-0.2,2.5-0.2c1.5,0,3.1,0,4.6,0c0.7,0,1.5,0,2.2,0L110.5,1c0.8,0,1.6,0,2.3,0
			c1.6,0,3.2,0,4.8,0.1c2,0,4,0.2,5.2,2c1.2,1.8,1.6,4.1,1.8,6.2C124.8,11.2,124.8,13.2,124.7,15.1z"/>
	</g>
</g>
<g>
	<path d="M12.9,24.9c-0.3,0.5-0.9,0.7-1.3,0.7c-0.5,0-1-0.1-1.3-0.5c-0.7-0.8-0.3-3-0.2-3.5l1.1-5.5h0.5l1.2,5.5
		C13.1,22.4,13.5,24.1,12.9,24.9z M13,13.6c0,0.9-0.7,1.6-1.6,1.6c-0.9,0-1.6-0.7-1.6-1.6s0.7-1.6,1.6-1.6
		C12.3,11.9,13,12.7,13,13.6z"/>
	<path d="M20.4,8.1l2.4,8.4l2.1-8.4h4.3v0.3c-0.7,0.5-0.7,1-0.7,1.9l0.6,9c0.1,1.2,0.2,1.7,1,2.2v0.3h-4.6v-0.3c0.9-0.4,0.9-1,0.8-2
		l-0.7-8.6l-2.8,10.9h-1.5l-3-10.4l-1,7.3c-0.2,1.3-0.3,1.9,1.1,2.8v0.3h-4v-0.3c1-0.6,1.3-1.4,1.4-2.6l1-7.7
		c0.1-0.9,0.4-1.9-0.7-2.6V8.1H20.4z"/>
	<path d="M39.7,20.7c-0.9,0.9-1.8,1.5-2.6,1.3c-0.7-0.2-0.9-0.7-1-1.5c-1.2,1.1-2.5,1.9-3.7,1.3c-0.8-0.4-1.2-1.3-1.2-2
		c0-2.1,1.4-2.6,3.3-3.5l1.6-0.8c0-1.6,0.1-2.3-0.5-2.6c-0.2-0.2-0.6-0.1-0.7-0.1c-0.6,0.3-0.6,1-0.8,1.7c-0.1,0.4-0.3,0.8-0.9,0.9
		c-0.3,0.1-0.7,0-1-0.2c-0.3-0.3-0.4-0.6-0.3-1.1c0.1-0.8,0.8-1.4,1.7-1.7c1-0.4,3.1-0.5,4.1,0.2c1,0.8,0.9,2.3,0.9,3v3.8
		c0,0.5-0.1,1,0.3,1.2c0.2,0.1,0.5-0.1,0.7-0.2L39.7,20.7z M36.7,7.7c0.4,0.1,0.6,0.4,0.6,0.8c0,0.6-0.9,1.2-1.7,1.7L34.2,11h-1.1
		l1.3-1.6C35.3,8.2,35.9,7.5,36.7,7.7z M33.4,19.4c0.1,0.5,0.4,0.9,0.9,1c0.5,0.2,1.2-0.1,1.6-0.6v-3.5c-0.8,0.4-1.5,0.9-1.8,1.2
		C33.5,18,33.3,18.7,33.4,19.4z"/>
	<path d="M43.4,12v1.7l0.3-0.2c1.3-1,2.7-1.9,3.9-1.3c1,0.5,0.9,1.8,0.9,2.7v4.9c0,1-0.1,1.2,0.6,1.7v0.2h-3.6v-0.2
		C46,21.2,46,21,46,20.2v-4.1c0-0.9,0.1-1.8-0.5-2.2c-0.5-0.3-1.2,0-2.1,0.4v5.7c0,0.7-0.1,1,0.6,1.5v0.2h-3.6v-0.2
		c0.5-0.4,0.6-0.6,0.6-1.2v-4.6c0-0.7,0-1.3-0.9-1.5v-0.4c1.2-0.3,2.1-0.9,3-1.7H43.4z"/>
	<path d="M58.1,8.1v12c0,0.6-0.1,1,0.6,1.4v0.2h-3v-1.1c-1.1,0.9-2.1,1.6-3.4,1.2c-1.1-0.4-1.7-1.3-2-2.4c-0.6-1.9-0.3-4.8,1.2-6.5
		c0.8-0.9,1.9-1.1,2.7-1c0.6,0.1,1,0.4,1.5,0.8v-0.4c0-1.3,0.1-1.9-0.9-2.2V9.9c1.1-0.3,1.9-0.7,3-1.7H58.1z M54.6,12.9
		c-0.4-0.3-0.9-0.2-1.3,0c-1.1,0.7-1,4-0.9,4.8c0.1,0.8,0.4,2.2,1.4,2.6c0.6,0.2,1.1,0.1,1.8-0.6v-3.4
		C55.6,14.9,55.7,13.5,54.6,12.9z"/>
	<path d="M68.2,20.7c-0.9,0.9-1.8,1.5-2.6,1.3c-0.7-0.2-0.9-0.7-1-1.5c-1.2,1.1-2.5,1.9-3.7,1.3c-0.8-0.4-1.2-1.3-1.2-2
		c0-2.1,1.4-2.6,3.3-3.5l1.6-0.8c0-1.6,0.1-2.3-0.5-2.6c-0.2-0.2-0.6-0.1-0.7-0.1c-0.6,0.3-0.6,1-0.8,1.7c-0.1,0.4-0.3,0.8-0.9,0.9
		c-0.3,0.1-0.7,0-1-0.2c-0.3-0.3-0.4-0.6-0.3-1.1c0.1-0.8,0.8-1.4,1.7-1.7c1-0.4,3.1-0.5,4.1,0.2c1,0.8,0.9,2.3,0.9,3v3.8
		c0,0.5-0.1,1,0.3,1.2c0.2,0.1,0.5-0.1,0.7-0.2L68.2,20.7z M61.9,19.4c0.1,0.5,0.4,0.9,0.9,1c0.5,0.2,1.2-0.1,1.6-0.6v-3.5
		c-0.8,0.4-1.5,0.9-1.8,1.2C62,18,61.8,18.7,61.9,19.4z"/>
	<path d="M71.9,12v1.7l0.3-0.2c1.3-1,2.7-1.9,3.9-1.3c1,0.5,0.9,1.8,0.9,2.7v4.9c0,1-0.1,1.2,0.6,1.7v0.2H74v-0.2
		c0.6-0.4,0.6-0.5,0.6-1.3v-4.1c0-0.9,0.1-1.8-0.5-2.2c-0.5-0.3-1.2,0-2.1,0.4v5.7c0,0.7-0.1,1,0.6,1.5v0.2h-3.6v-0.2
		c0.5-0.4,0.6-0.6,0.6-1.2v-4.6c0-0.7,0-1.3-0.9-1.5v-0.4c1.2-0.3,2.1-0.9,3-1.7H71.9z"/>
	<path d="M85.7,13.3c1.2,1.4,1.5,3.4,1.2,5.2c-0.3,1.5-1.2,2.8-2.8,3.4c-1,0.3-2.6,0.2-3.7-0.6c-1.5-1.1-2-3-1.9-4.6
		c0.1-1.3,0.8-3.3,2.4-4.1c0.5-0.2,0.8-0.3,1.2-0.4C83.2,11.9,84.8,12.2,85.7,13.3z M81.1,17.8c0,0.9,0,2.8,0.9,3.3
		c0.4,0.2,1,0.2,1.3,0c1.1-0.6,1.1-2.4,1.1-3.4v-1c0-0.9-0.1-3-0.8-3.7c-0.4-0.3-0.8-0.3-1.1-0.3c-1.4,0.2-1.4,2.7-1.4,3.5V17.8z"/>
	<path d="M94.4,15.1L94,15c-0.5-1.2-0.9-1.9-2.2-2.1c-0.4-0.1-1,0-1.3,0.3c-0.3,0.3-0.4,0.5-0.3,0.8c0.1,0.6,0.8,1,1.7,1.5l0.8,0.4
		c1.5,0.7,2.7,1.4,2.8,3c0,0.9-0.3,1.9-1.4,2.6c-1.7,1.1-4.3,0.6-6.5-0.5l0.9-2.5l0.5,0.2c0.3,1.1,0.9,2.2,2.1,2.6
		c0.5,0.2,1.2,0.2,1.6-0.2c0.4-0.3,0.5-0.7,0.5-1.1c-0.1-0.9-1.1-1.3-1.9-1.7l-0.7-0.3c-1.1-0.6-2.3-1.1-2.5-2.4
		c-0.1-0.6,0-1.5,0.6-2.3c1-1,2.4-1.2,3.4-1.1c1,0.1,1.6,0.3,2.8,1.1L94.4,15.1z"/>
	<path d="M102.5,12v6.4c0,0.9-0.1,1.6,0.5,1.9c0.5,0.3,1.2-0.1,2-0.6v-3.4c0-1.1,0.1-1.7-0.9-2v-0.4c1.3-0.3,2-0.9,3-1.7h0.3v7.7
		c0,1-0.1,1.4,0.6,1.8v0.2h-3v-1.4c-1.2,1-3,2.1-4.1,1.6c-1-0.5-0.9-1.5-0.9-2.4v-3.8c0-0.9-0.1-1.3-0.9-1.5v-0.4
		c1.1-0.3,2.1-0.9,3-1.7H102.5z"/>
	<path d="M112.1,12v1.7l0.3-0.2c1.3-1,2.7-1.9,3.9-1.3c1,0.5,0.9,1.8,0.9,2.7v4.9c0,1-0.1,1.2,0.6,1.7v0.2h-3.6v-0.2
		c0.6-0.4,0.6-0.5,0.6-1.3v-4.1c0-0.9,0.1-1.8-0.5-2.2c-0.5-0.3-1.2,0-2.1,0.4v5.7c0,0.7-0.1,1,0.6,1.5v0.2H109v-0.2
		c0.5-0.4,0.6-0.6,0.6-1.2v-4.6c0-0.7,0-1.3-0.9-1.5v-0.4c1.2-0.3,2.1-0.9,3-1.7H112.1z"/>
	<path d="M32.2,33.6v1.8l0.6-0.4c1.1-0.7,2.9-1.8,3.8-1.3c0.6,0.3,0.6,1.1,0.6,1.8l0.5-0.3c1.2-0.9,2.6-2,3.8-1.4
		c0.8,0.5,0.8,1.8,0.8,2.5v5.4c0,0.7-0.1,1,0.6,1.4v0.2h-3.6v-0.2c0.7-0.4,0.6-0.8,0.6-1.4v-4.2c0-0.9,0.1-1.7-0.5-2
		c-0.5-0.3-1.4,0.2-2.2,0.7v5.6c0,0.6,0,0.9,0.6,1.3v0.2h-3.6v-0.2c0.6-0.4,0.6-0.7,0.6-1.3v-4.4c0-0.7,0.1-1.5-0.4-1.8
		c-0.5-0.3-1.5,0.2-2.2,0.5v5.4c0,0.9-0.1,1.2,0.6,1.6v0.2h-3.6v-0.2c0.6-0.4,0.6-0.5,0.6-1.4v-4.5c0-0.5,0-1.1-0.9-1.4v-0.4
		c1.1-0.3,2-0.8,3-1.7H32.2z"/>
	<path d="M46.3,38.2c0,1.1,0.4,2.7,1.9,3.4c1.1,0.5,2.2,0.2,3.4-0.8l0.3,0.2c-1.1,1.8-2.3,2.6-4,2.6c-1.2,0-2.3-0.5-3.3-1.9
		c-1-1.5-1-4-0.3-5.6c0.6-1.3,1.9-2.3,3.1-2.5c1-0.1,2.3,0.2,3.2,1.2c0.7,0.9,1,2.3,1,3.3H46.3z M49.4,37.3c0.1-0.3,0.2-1,0-1.7
		c-0.2-0.6-0.5-0.9-1-1.1c-0.4-0.1-0.9-0.1-1.2,0.2c-0.8,0.6-0.8,2.3-0.8,2.9h2.1C48.7,37.6,49.2,37.6,49.4,37.3z"/>
	<path d="M56.1,33.6v1.7l0.3-0.2c1.3-1,2.7-1.9,3.9-1.3c1,0.5,0.9,1.8,0.9,2.7v4.9c0,1-0.1,1.2,0.6,1.7v0.2h-3.6v-0.2
		c0.6-0.4,0.6-0.5,0.6-1.3v-4.1c0-0.9,0.1-1.8-0.5-2.2c-0.5-0.3-1.2,0-2.1,0.4v5.7c0,0.7-0.1,1,0.6,1.5v0.2H53v-0.2
		c0.5-0.4,0.6-0.6,0.6-1.2v-4.6c0-0.7,0-1.3-0.9-1.5v-0.4c1.2-0.3,2.1-0.9,3-1.7H56.1z"/>
	<path d="M69.3,36.7L69,36.6c-0.5-1.2-0.9-1.9-2.2-2.1c-0.4-0.1-1,0-1.3,0.3c-0.3,0.3-0.4,0.5-0.3,0.8c0.1,0.6,0.8,1,1.7,1.5
		l0.8,0.4c1.5,0.7,2.7,1.4,2.8,3c0,0.9-0.3,1.9-1.4,2.6c-1.7,1.1-4.3,0.6-6.5-0.5l0.9-2.5l0.5,0.2c0.3,1.1,0.9,2.2,2.1,2.6
		c0.5,0.2,1.2,0.2,1.6-0.2c0.4-0.3,0.5-0.7,0.5-1.1c-0.1-0.9-1.1-1.3-1.9-1.7l-0.7-0.3c-1.1-0.6-2.3-1.1-2.5-2.4
		c-0.1-0.6,0-1.5,0.6-2.3c1-1,2.4-1.2,3.4-1.1c1,0.1,1.6,0.3,2.8,1.1L69.3,36.7z"/>
	<path d="M80.1,42.3c-0.9,0.9-1.8,1.5-2.6,1.3c-0.7-0.2-0.9-0.7-1-1.5c-1.2,1.1-2.5,1.9-3.7,1.3c-0.8-0.4-1.2-1.3-1.2-2
		c0-2.1,1.4-2.6,3.3-3.5l1.6-0.8c0-1.6,0.1-2.3-0.4-2.6c-0.2-0.2-0.6-0.1-0.7-0.1c-0.6,0.3-0.6,1-0.8,1.7c-0.1,0.4-0.3,0.8-0.9,0.9
		c-0.3,0.1-0.7,0-1-0.2c-0.3-0.3-0.4-0.6-0.3-1.1c0.1-0.8,0.8-1.4,1.7-1.7c1-0.4,3.1-0.5,4.1,0.2c1,0.8,0.9,2.3,0.9,3V41
		c0,0.5-0.1,1,0.3,1.2c0.2,0.1,0.5-0.1,0.7-0.2L80.1,42.3z M73.9,41c0.1,0.5,0.4,0.9,0.9,1c0.5,0.2,1.2-0.1,1.6-0.6v-3.5
		c-0.8,0.4-1.5,0.9-1.8,1.2C73.9,39.6,73.7,40.3,73.9,41z"/>
	<path d="M80.5,35.8v-0.4c1.2-0.3,2-0.8,3-1.7h0.3v9.8c0,0.9,0.4,2.3-0.9,3.3c-0.7,0.6-2,0.6-2.8,0.3c-0.6-0.2-1.1-0.6-1.3-1.2
		c-0.1-0.3-0.1-0.8,0.2-1.1c0.2-0.2,0.5-0.4,0.8-0.3c0.3,0,0.7,0.2,0.8,0.5c0.2,0.4,0.2,1,0.3,1.3c0.1,0.1,0.2,0.2,0.4,0.2
		c0.2-0.1,0.3-0.1,0.3-0.4c0-0.2-0.2-1.4-0.3-1.5c-0.1-0.3-0.1-0.9-0.1-1.5v-5.5C81.4,36.4,81.3,36.1,80.5,35.8z M83.5,30.1
		c0.4,0.3,0.6,0.8,0.5,1.3c-0.1,0.5-0.3,0.9-0.8,1.1c-0.4,0.2-1,0.2-1.4-0.1c-0.5-0.3-0.7-0.7-0.7-1.2c0-0.6,0.3-1.3,1.1-1.5
		C82.6,29.7,83.1,29.7,83.5,30.1z"/>
	<path d="M87.4,38.2c0,1.1,0.4,2.7,1.9,3.4c1.1,0.5,2.2,0.2,3.4-0.8L93,41c-1.1,1.8-2.3,2.6-4,2.6c-1.2,0-2.3-0.5-3.3-1.9
		c-1-1.5-1-4-0.3-5.6c0.6-1.3,1.9-2.3,3.1-2.5c1-0.1,2.3,0.2,3.2,1.2c0.7,0.9,1,2.3,1,3.3H87.4z M90.4,37.3c0.1-0.3,0.2-1,0-1.7
		c-0.2-0.6-0.5-0.9-1-1.1c-0.4-0.1-0.9-0.1-1.2,0.2c-0.8,0.6-0.8,2.3-0.8,2.9h2.1C89.8,37.6,90.2,37.6,90.4,37.3z"/>
	<path d="M95.6,39.5L94.5,34c-0.1-0.6-0.5-2.7,0.2-3.5C95,30.1,95.5,30,96,30c0.4,0,1,0.2,1.3,0.7c0.6,0.8,0.2,2.5,0,3.3l-1.2,5.5
		H95.6z M95.9,40.4c0.9,0,1.6,0.7,1.6,1.6s-0.7,1.6-1.6,1.6s-1.6-0.7-1.6-1.6S95,40.4,95.9,40.4z"/>
</g>
</svg>
