<svg width="26" height="25" viewBox="0 0 26 25" fill="none" xmlns="http://www.w3.org/2000/svg">
<path d="M1.91891 7.74057C0.5841 5.58358 0.991959 4.50509 1.36274 4.23547C1.36274 4.23547 4.97784 1 5.53402 1C6.0902 1 9.70531 6.39245 9.70531 6.9317C9.70531 7.47094 8.03679 10.1672 8.03679 10.4368C8.03679 10.7064 14.9889 17.1774 15.5451 17.1774C16.1013 17.1774 18.8821 15.5596 19.1602 15.5596C19.4383 15.5596 25 19.3343 25 19.604C25 19.8736 24.1101 21.8149 22.7753 23.1091C21.4405 24.4032 19.4383 24.0078 18.604 23.6483C18.0479 23.5584 15.99 22.6777 12.2081 19.8736C7.48062 16.3685 3.58742 10.4368 1.91891 7.74057Z" fill="#003968" stroke="#003968" stroke-width="0.2"/>
</svg>
