<?xml version="1.0" encoding="utf-8"?>
<!-- Generator: Adobe Illustrator 24.0.2, SVG Export Plug-In . SVG Version: 6.00 Build 0)  -->
<svg version="1.1" id="Layer_1" xmlns="http://www.w3.org/2000/svg" xmlns:xlink="http://www.w3.org/1999/xlink" x="0px" y="0px"
	 viewBox="0 0 215.9 216.9" enable-background="new 0 0 215.9 216.9" xml:space="preserve">
<linearGradient id="SVGID_1_" gradientUnits="userSpaceOnUse" x1="-567.3716" y1="1843.1411" x2="-567.3716" y2="1747.6884" gradientTransform="matrix(2.0408 0 0 2.0408 1268.8921 -3554.9824)">
	<stop  offset="0" style="stop-color:#20B038"/>
	<stop  offset="1" style="stop-color:#60D66A"/>
</linearGradient>
<path fill="url(#SVGID_1_)" d="M14,206.5l13.7-50c-8.5-14.6-12.9-31.3-12.9-48.3c0-53.2,43.3-96.5,96.6-96.5
	c25.8,0,50.1,10.1,68.3,28.3S208,82.5,208,108.3c0,53.2-43.3,96.5-96.6,96.5l0,0l0,0c-16.2,0-32-4.1-46.1-11.7L14,206.5L14,206.5z"
	/>
<path fill-rule="evenodd" clip-rule="evenodd" fill="#FFFFFF" d="M85,64.7c-1.9-4.3-4-4.4-5.8-4.5c-1.5-0.1-3.2-0.1-5-0.1
	c-1.7,0-4.5,0.7-6.9,3.3c-2.4,2.6-9.1,8.9-9.1,21.7s9.3,25.1,10.6,26.9c1.3,1.7,18,28.8,44.4,39.2c21.9,8.7,26.4,6.9,31.2,6.5
	s15.4-6.3,17.5-12.3c2.2-6.1,2.2-11.3,1.5-12.4c-0.6-1.1-2.4-1.7-5-3s-15.4-7.6-17.8-8.5c-2.4-0.9-4.1-1.3-5.8,1.3
	c-1.7,2.6-6.7,8.4-8.2,10.2c-1.5,1.7-3,2-5.6,0.7s-11-4-20.9-12.9c-7.7-6.9-12.9-15.4-14.5-18c-1.5-2.6-0.2-4,1.1-5.3
	c1.2-1.2,2.6-3,3.9-4.5s1.7-2.6,2.6-4.3c0.9-1.7,0.4-3.3-0.2-4.6C92.4,82.7,87.3,69.8,85,64.7L85,64.7z"/>
<path fill="#ECECEC" d="M181,37.8C162.4,19.2,137.7,9,111.4,9C57.1,9,13,53.1,13,107.3c0,17.3,4.5,34.3,13.1,49.2l-14,51l52.2-13.7
	c14.4,7.8,30.6,12,47,12l0,0l0,0c54.2,0,98.4-44.1,98.4-98.4C209.8,81.1,199.6,56.4,181,37.8L181,37.8z M111.4,189.2L111.4,189.2
	c-14.7,0-29.1-3.9-41.7-11.4l-3-1.8l-31,8.1L44,154l-1.9-3.1c-8.2-13-12.5-28.1-12.5-43.5c0-45.1,36.7-81.8,81.8-81.8
	c21.8,0,42.4,8.5,57.8,24s23.9,36,23.9,57.9C193.2,152.5,156.5,189.2,111.4,189.2z"/>
</svg>
